<svg width="54" height="37" viewBox="0 0 54 37" fill="none" xmlns="http://www.w3.org/2000/svg">
<g clip-path="url(#clip0_354_28)">
<path d="M8.79545 9.37962H10.9091V21.8569C10.9091 22.9705 10.7045 23.9166 10.2955 24.695C9.88636 25.4734 9.30966 26.0643 8.56534 26.4677C7.82102 26.8711 6.94318 27.0728 5.93182 27.0728C4.97727 27.0728 4.12784 26.8995 3.38352 26.5529C2.6392 26.2006 2.05398 25.7006 1.62784 25.0529C1.2017 24.4052 0.988636 23.6353 0.988636 22.7433H3.06818C3.06818 23.2376 3.19034 23.6694 3.43466 24.0387C3.68466 24.4023 4.02557 24.6864 4.45739 24.891C4.8892 25.0955 5.38068 25.1978 5.93182 25.1978C6.53977 25.1978 7.05682 25.07 7.48295 24.8143C7.90909 24.5586 8.23295 24.1836 8.45455 23.6893C8.68182 23.1893 8.79545 22.5785 8.79545 21.8569V9.37962ZM15.1449 26.8342V9.37962H21.2472C22.4631 9.37962 23.4659 9.58985 24.2557 10.0103C25.0455 10.4251 25.6335 10.9847 26.0199 11.6893C26.4063 12.3881 26.5994 13.1637 26.5994 14.016C26.5994 14.766 26.4659 15.3853 26.1989 15.8739C25.9375 16.3626 25.5909 16.7489 25.1591 17.033C24.733 17.3171 24.2699 17.5273 23.7699 17.6637V17.8342C24.304 17.8683 24.8409 18.0558 25.3807 18.3967C25.9205 18.7376 26.3722 19.2262 26.7358 19.8626C27.0994 20.4989 27.2812 21.2773 27.2812 22.1978C27.2812 23.0728 27.0824 23.8597 26.6847 24.5586C26.2869 25.2575 25.6591 25.8114 24.8011 26.2205C23.9432 26.6296 22.8267 26.8342 21.4517 26.8342H15.1449ZM17.2585 24.9592H21.4517C22.8324 24.9592 23.8125 24.6921 24.392 24.158C24.9773 23.6183 25.2699 22.9648 25.2699 22.1978C25.2699 21.6069 25.1193 21.0614 24.8182 20.5614C24.517 20.0558 24.0881 19.6523 23.5312 19.3512C22.9744 19.0444 22.3153 18.891 21.554 18.891H17.2585V24.9592ZM17.2585 17.0501H21.179C21.8153 17.0501 22.3892 16.9251 22.9006 16.6751C23.4176 16.4251 23.8267 16.0728 24.1278 15.6183C24.4347 15.1637 24.5881 14.6296 24.5881 14.016C24.5881 13.2489 24.321 12.5984 23.7869 12.0643C23.2528 11.5245 22.4063 11.2546 21.2472 11.2546H17.2585V17.0501Z" fill="#FBD784"/>
<path d="M42.278 0.0137483C40.9461 0.396528 39.7752 1.44611 39.0066 2.94608C40.2201 3.42759 41.4792 3.67447 42.7453 3.67916C44.0123 3.69154 45.2733 3.44429 46.484 2.94608C46.0758 2.1021 45.525 1.39731 44.8758 0.88811C44.2265 0.378914 43.4969 0.0794684 42.7453 0.0137483C42.5898 -0.00458276 42.4334 -0.00458276 42.278 0.0137483ZM38.2368 4.54083C37.8514 5.48324 37.5206 6.46354 37.2472 7.47316C38.1052 8.10091 39.0334 8.54027 39.9962 8.77438C40.0925 7.56479 40.1887 6.35521 40.2986 5.2374C39.599 5.07618 38.9097 4.84321 38.2368 4.54083ZM47.295 4.54083C46.6087 4.84596 45.9056 5.07882 45.192 5.23726C45.3157 6.37353 45.3981 7.56479 45.4944 8.77438C46.4641 8.50564 47.3933 8.02247 48.2434 7.34487C47.9868 6.37645 47.6695 5.43837 47.295 4.54083ZM41.7144 5.51216C41.6044 6.63026 41.5082 7.82137 41.412 9.17758C41.8381 9.17758 42.278 9.28754 42.7865 9.28754C43.2951 9.28754 43.7212 9.28754 44.1611 9.17758C44.0649 7.89468 43.9686 6.68509 43.8587 5.51216H41.7556H41.7144ZM48.7108 9.17758C47.7416 9.86476 46.6983 10.347 45.6181 10.6071C45.7005 11.8167 45.783 13.0263 45.838 14.2725C47.0868 13.9445 48.2457 13.1718 49.1918 12.0366C49.0544 11.0836 48.9032 10.2039 48.7108 9.2327V9.17758ZM36.8211 9.17758C36.6149 10.1124 36.4362 11.0103 36.2988 11.9999C37.271 13.1005 38.4408 13.8456 39.6938 14.1625C39.6938 12.9714 39.8313 11.7618 39.9138 10.4971C38.8369 10.2791 37.7929 9.83365 36.8211 9.17758ZM41.2883 10.8455C41.2058 12.0184 41.1371 13.2097 41.0684 14.5109C41.6236 14.6205 42.1841 14.6756 42.7453 14.6758C43.334 14.6764 43.9219 14.6213 44.5047 14.511C44.5047 13.2648 44.326 12.0735 44.2435 10.8456C43.7469 10.9382 43.2466 10.9932 42.7453 11.0106C42.223 11.0106 41.7556 11.0106 41.2883 10.9006V10.8455ZM49.453 14.0527C48.3834 15.0052 47.1827 15.6655 45.9205 15.9954C45.9205 17.2601 46.0167 18.433 46.0579 19.5508C47.4508 19.2232 48.7118 18.2492 49.618 16.8013C49.618 15.885 49.5217 14.9686 49.453 14.1074V14.0527ZM36.0926 14.0527C36.0101 14.9509 35.9414 15.8854 35.9139 16.8018C36.8324 18.2292 38.0968 19.1825 39.4877 19.496C39.4877 18.3414 39.4877 17.1318 39.6114 15.8306C38.3591 15.5357 37.1632 14.9128 36.0926 13.9979V14.0527ZM53.7415 14.6758C49.8408 18.5798 46.1651 22.8681 42.7453 27.5048C40.7702 25.4983 38.3557 24.4116 35.8727 24.4116C33.3896 24.4116 30.9751 25.4983 29 27.5048C34.4981 27.3582 35.9414 30.5656 37.0822 33.2961C37.5864 34.219 38.227 34.9944 38.9646 35.5743C39.7022 36.1543 40.5211 36.5266 41.3708 36.6683H44.1198C45.9342 36.4302 47.6386 34.1392 48.8895 31.5734C51.1024 27.0465 53.7415 14.6754 53.7415 14.6754V14.6758ZM40.9859 16.3438C40.9859 17.535 40.8484 18.7263 40.8072 20.0092C41.45 20.1186 42.0973 20.1737 42.7453 20.1741C43.4082 20.1645 44.0697 20.091 44.7246 19.9542C44.7246 18.7264 44.6422 17.535 44.5872 16.2888C43.9776 16.4175 43.3623 16.4909 42.7453 16.5087C42.1567 16.5092 41.5687 16.4541 40.9859 16.3439V16.3438ZM35.8727 19.496C35.8727 20.5223 35.9551 21.5486 36.0513 22.52C37.1751 22.5663 38.2872 22.8381 39.3502 23.3264V21.4937C38.1032 21.1414 36.9211 20.4623 35.8727 19.4957V19.496ZM45.7968 21.5486C44.7956 21.8529 43.7721 22.0065 42.7453 22.0068C42.0836 22.0067 41.4225 21.9517 40.766 21.842V24.0229C41.4596 24.4969 42.1218 25.0487 42.7453 25.6724C43.7205 24.2256 44.7528 22.8491 45.838 21.5489L45.7968 21.5486Z" fill="#FBD784"/>
</g>
<defs>
<clipPath id="clip0_354_28">
<rect width="53.7415" height="36.6683" fill="white"/>
</clipPath>
</defs>
</svg>
